<svg width="900" height="200" xmlns="http://www.w3.org/2000/svg"><path d="m0 80 8.8-6.3c8.9-6.4 26.5-19 44.2-24.5 17.7-5.5 35.3-3.9 53 1.1 17.7 5 35.3 13.4 53 15.7 17.7 2.3 35.3-1.3 53-7.5 17.7-6.2 35.3-14.8 53-11.3 17.7 3.5 35.3 19.1 53 24.3 17.7 5.2 35.3-.2 53-5.7 17.7-5.5 35.3-11.1 52.8-13.5 17.5-2.3 34.9-1.3 52.4-.6 17.5.6 35.1 1 52.8-1.9 17.7-2.8 35.3-8.8 53-2.8 17.7 6 35.3 24 53 28 17.7 4 35.3-6 53-13.2 17.7-7.1 35.3-11.5 53-15.6 17.7-4.2 35.3-8.2 53-4.7C811.7 45 829.3 56 847 62c17.7 6 35.3 7 44.2 7.5l8.8.5v131H0Z" fill="#ffa59e"/><path d="m0 92 8.8-2.2c8.9-2.1 26.5-6.5 44.2-7.8 17.7-1.3 35.3.3 53 .5 17.7.2 35.3-1.2 53-4.8C176.7 74 194.3 68 212 66c17.7-2 35.3 0 53 0 17.7 0 35.3-2 53 1.2 17.7 3.1 35.3 11.5 53 18.6 17.7 7.2 35.3 13.2 52.8 16.7s34.9 4.5 52.4-.2c17.5-4.6 35.1-15 52.8-15.5 17.7-.5 35.3 8.9 53 8.5 17.7-.3 35.3-10.3 53-17.6 17.7-7.4 35.3-12 53-6 17.7 6 35.3 22.6 53 25.3 17.7 2.7 35.3-8.7 53-12.8 17.7-4.2 35.3-1.2 53 2.6 17.7 3.9 35.3 8.5 44.2 10.9l8.8 2.3v101H0Z" fill="#ff948a"/><path d="m0 94 8.8 2.5c8.9 2.5 26.5 7.5 44.2 9.2 17.7 1.6 35.3 0 53-.9 17.7-.8 35.3-.8 53 1 17.7 1.9 35.3 5.5 53 3.4 17.7-2.2 35.3-10.2 53-15.4 17.7-5.1 35.3-7.5 53-2.3 17.7 5.2 35.3 17.8 53 19.3 17.7 1.5 35.3-8.1 52.8-9 17.5-.8 34.9 7.2 52.4 6.9 17.5-.4 35.1-9 52.8-7.9 17.7 1.2 35.3 12.2 53 17.2 17.7 5 35.3 4 53 3 17.7-1 35.3-2 53-.5 17.7 1.5 35.3 5.5 53 5.3 17.7-.1 35.3-4.5 53-12 17.7-7.5 35.3-18.1 53-23 17.7-4.8 35.3-3.8 44.2-3.3l8.8.5v113H0Z" fill="#ff8475"/><path d="m0 143 8.8-3.5c8.9-3.5 26.5-10.5 44.2-12 17.7-1.5 35.3 2.5 53 1.2 17.7-1.4 35.3-8 53-7.5 17.7.5 35.3 8.1 53 13.5 17.7 5.3 35.3 8.3 53 4.6 17.7-3.6 35.3-14 53-18.8 17.7-4.8 35.3-4.2 53-1.7 17.7 2.5 35.3 6.9 52.8 6.7 17.5-.2 34.9-4.8 52.4-4.5 17.5.3 35.1 5.7 52.8 9.3 17.7 3.7 35.3 5.7 53 5 17.7-.6 35.3-4 53-7 17.7-3 35.3-5.6 53-3.5 17.7 2.2 35.3 9.2 53 8.7 17.7-.5 35.3-8.5 53-8 17.7.5 35.3 9.5 53 8.7 17.7-.9 35.3-11.5 44.2-16.9l8.8-5.3v89H0Z" fill="#ff725f"/><path d="m0 149 8.8-.7c8.9-.6 26.5-2 44.2-2.5 17.7-.5 35.3-.1 53 3 17.7 3.2 35.3 9.2 53 6.9 17.7-2.4 35.3-13 53-12.7 17.7.3 35.3 11.7 53 13.8 17.7 2.2 35.3-4.8 53-10.5 17.7-5.6 35.3-10 53-9.5 17.7.5 35.3 5.9 52.8 9.5 17.5 3.7 34.9 5.7 52.4 8 17.5 2.4 35.1 5 52.8 1.9 17.7-3.2 35.3-12.2 53-12.5 17.7-.4 35.3 8 53 8.3 17.7.3 35.3-7.3 53-11.2 17.7-3.8 35.3-3.8 53-4.6 17.7-.9 35.3-2.5 53-.9 17.7 1.7 35.3 6.7 53 10.7 17.7 4 35.3 7 44.2 8.5l8.8 1.5v45H0Z" fill="#fd6148"/><path d="m0 173 8.8-1.8c8.9-1.9 26.5-5.5 44.2-3.9 17.7 1.7 35.3 8.7 53 10.5 17.7 1.9 35.3-1.5 53-2.1 17.7-.7 35.3 1.3 53 2 17.7.6 35.3 0 53-2.7 17.7-2.7 35.3-7.3 53-10.3 17.7-3 35.3-4.4 53-4.2 17.7.2 35.3 1.8 52.8 4s34.9 4.8 52.4 6.8 35.1 3.4 52.8 1c17.7-2.3 35.3-8.3 53-10.6 17.7-2.4 35.3-1 53-1 17.7 0 35.3-1.4 53-.5 17.7.8 35.3 3.8 53 5.3 17.7 1.5 35.3 1.5 53 2.7 17.7 1.1 35.3 3.5 53 2.6 17.7-.8 35.3-4.8 44.2-6.8l8.8-2v39H0Z" fill="#f94e30"/></svg>